<?xml version="1.0" standalone="no"?>
<!DOCTYPE svg PUBLIC "-//W3C//DTD SVG 20010904//EN"
 "http://www.w3.org/TR/2001/REC-SVG-20010904/DTD/svg10.dtd">
<svg version="1.0" xmlns="http://www.w3.org/2000/svg"
 width="1280.000000pt" height="1223.000000pt" viewBox="0 0 1280.000000 1223.000000"
 preserveAspectRatio="xMidYMid meet">
<metadata>
Created by potrace 1.15, written by Peter Selinger 2001-2017
</metadata>
<g transform="translate(0.000000,1223.000000) scale(0.100000,-0.100000)"
fill="#000000" stroke="none">
<path d="M8217 12216 c-103 -38 -179 -124 -267 -301 -98 -197 -189 -501 -261
-873 -34 -179 -85 -512 -95 -629 l-7 -78 118 150 c393 501 676 963 776 1265
36 109 49 247 30 318 -31 115 -181 190 -294 148z"/>
<path d="M4298 11455 c-79 -21 -173 -70 -213 -110 -57 -57 -79 -116 -78 -205
1 -188 127 -417 538 -975 395 -537 543 -791 605 -1039 18 -72 21 -110 18 -195
-4 -118 -25 -178 -93 -272 -39 -52 -137 -131 -194 -155 -51 -22 -143 -14 -206
16 -78 38 -233 201 -390 410 -243 322 -366 430 -490 430 -100 0 -221 -89 -245
-182 -28 -102 18 -185 230 -418 202 -222 260 -316 260 -423 0 -66 -34 -141
-90 -197 -58 -58 -114 -81 -198 -81 -114 -1 -200 40 -476 224 -82 55 -187 118
-234 140 -72 35 -95 41 -151 41 -54 1 -74 -4 -112 -26 -78 -46 -138 -145 -139
-228 0 -56 35 -134 86 -190 54 -60 171 -148 369 -280 274 -182 362 -261 416
-375 50 -103 37 -217 -31 -285 -60 -60 -141 -81 -307 -81 -207 1 -376 30 -898
157 -525 128 -577 140 -745 172 -358 70 -562 65 -669 -15 -67 -51 -81 -140
-29 -198 97 -111 388 -176 1053 -234 602 -53 701 -63 860 -82 483 -58 740
-150 771 -275 11 -43 -16 -160 -52 -234 -90 -180 -280 -275 -602 -301 -203
-16 -444 0 -947 66 -143 18 -323 42 -400 51 -101 13 -210 18 -390 19 -234 0
-255 -2 -333 -24 -202 -58 -289 -174 -280 -375 6 -134 47 -200 153 -247 41
-19 72 -24 180 -27 204 -6 394 31 975 193 585 163 824 212 1070 222 244 9 389
-30 493 -133 92 -92 132 -219 125 -396 -3 -83 -9 -112 -27 -148 -78 -150 -208
-232 -581 -370 -339 -125 -470 -203 -520 -306 -31 -62 -25 -166 13 -241 32
-62 59 -83 110 -83 78 0 140 45 388 280 257 243 360 310 479 312 80 1 134 -27
215 -114 257 -272 230 -475 -90 -663 -87 -51 -141 -77 -453 -218 -317 -144
-422 -232 -422 -353 0 -95 110 -233 233 -294 60 -29 73 -32 139 -29 94 5 165
40 259 127 89 82 156 166 347 436 239 337 349 438 460 421 68 -10 145 -92 205
-216 169 -352 64 -696 -344 -1123 -132 -138 -279 -269 -584 -519 -423 -348
-565 -479 -670 -622 -78 -106 -107 -172 -113 -262 -4 -67 -2 -79 27 -138 38
-77 116 -152 224 -213 222 -127 381 -115 522 41 141 155 206 311 450 1072 204
637 355 913 581 1065 108 72 191 95 329 94 134 -2 238 -30 392 -105 166 -81
217 -159 216 -329 -1 -104 -24 -203 -105 -455 -63 -199 -98 -342 -98 -410 0
-134 89 -223 233 -233 85 -6 142 15 191 68 72 80 106 174 171 473 24 114 54
240 66 280 47 157 110 257 190 298 50 25 133 34 189 19 141 -37 207 -147 231
-386 19 -189 -5 -424 -120 -1179 -58 -373 -73 -547 -69 -764 4 -158 9 -210 25
-268 39 -137 95 -213 187 -255 72 -33 233 -32 321 2 177 67 254 205 255 450 0
225 -44 434 -220 1040 -130 448 -169 602 -199 790 -66 412 45 643 315 658 48
3 96 0 117 -7 93 -31 183 -125 253 -264 19 -37 68 -148 109 -248 41 -99 95
-220 121 -269 77 -150 178 -222 286 -206 64 10 139 48 175 89 93 106 67 213
-149 612 -122 226 -160 349 -138 448 15 73 51 122 122 167 91 59 160 82 246
82 102 0 181 -39 283 -141 120 -121 220 -288 394 -661 274 -584 392 -766 555
-855 48 -26 65 -30 135 -30 71 0 88 4 148 33 140 69 228 170 242 277 14 102
-58 242 -203 396 -94 100 -232 218 -592 504 -417 332 -621 545 -676 708 -70
203 60 400 290 440 154 26 344 -51 571 -234 44 -35 199 -181 345 -324 146
-143 303 -294 350 -336 156 -140 310 -238 422 -269 61 -16 192 -9 235 13 65
34 81 148 33 239 -73 141 -227 260 -675 525 -510 301 -681 423 -781 556 -55
74 -68 98 -83 161 -23 93 9 186 94 275 30 32 55 63 55 70 0 28 56 151 97 214
51 77 111 127 191 159 74 29 252 31 352 4 206 -55 445 -169 890 -425 297 -172
504 -275 630 -317 69 -23 103 -28 181 -29 89 0 99 2 144 30 53 33 95 97 116
176 16 58 7 90 -37 139 -102 113 -286 171 -998 316 -618 126 -832 185 -1019
281 -282 145 -311 338 -87 564 83 84 168 132 295 165 111 30 436 25 710 -10
456 -58 618 -43 728 67 93 93 115 249 71 507 -19 109 -22 120 -40 120 -11 0
-12 4 -3 18 10 16 7 29 -17 72 -55 101 -153 143 -289 121 -132 -21 -256 -73
-650 -271 -553 -279 -684 -326 -880 -318 -117 5 -169 24 -239 88 -86 79 -167
290 -152 393 9 62 59 141 118 188 69 54 200 116 393 184 296 104 403 152 476
215 95 81 112 183 52 311 -45 97 -97 131 -195 131 -63 -1 -116 -18 -308 -102
-193 -84 -274 -110 -370 -117 -120 -9 -213 25 -311 114 -84 76 -103 172 -51
254 71 111 195 189 707 444 236 117 457 234 520 276 135 88 260 209 300 292
58 121 29 251 -84 378 -178 199 -388 191 -659 -24 -151 -120 -301 -286 -691
-766 -250 -308 -378 -433 -496 -487 -100 -46 -183 -18 -242 84 -25 42 -28 57
-28 137 0 158 49 264 337 720 253 401 279 590 95 695 -42 24 -64 30 -111 30
-150 0 -255 -110 -484 -506 -210 -363 -282 -469 -372 -544 -131 -110 -267
-114 -370 -10 -100 100 -102 250 -8 590 111 403 121 447 122 575 1 114 0 123
-27 170 -77 140 -284 169 -381 54 -61 -72 -94 -167 -161 -455 -81 -349 -143
-471 -267 -524 -69 -30 -174 -25 -245 11 -53 28 -105 94 -125 162 -19 64 -14
288 11 502 26 210 25 364 -2 425 -16 36 -57 80 -92 98 -74 37 -196 20 -254
-36 -80 -77 -78 -186 9 -532 62 -247 80 -345 80 -429 0 -173 -68 -238 -259
-248 -117 -7 -188 7 -279 52 -91 46 -161 110 -226 208 -134 203 -207 443 -306
1007 -115 658 -174 868 -287 1021 -88 119 -220 164 -365 124z"/>
<path d="M10577 8019 c-57 -13 -90 -33 -131 -79 -49 -54 -67 -100 -67 -166 0
-123 99 -233 225 -250 134 -19 276 111 276 251 -1 152 -158 279 -303 244z"/>
<path d="M160 7599 c-89 -40 -147 -119 -157 -214 -10 -93 58 -202 152 -246 48
-22 142 -25 189 -5 51 21 117 86 139 136 89 200 -125 419 -323 329z"/>
<path d="M11610 5724 c-313 -23 -820 -81 -820 -93 1 -17 526 -226 780 -311
387 -130 638 -184 860 -184 128 0 152 3 203 23 66 26 120 69 144 115 25 47 23
161 -4 211 -60 112 -202 180 -458 221 -98 15 -574 27 -705 18z"/>
<path d="M1719 3780 c-724 -93 -1234 -226 -1490 -388 -76 -48 -154 -127 -175
-177 -20 -48 -17 -132 5 -180 130 -277 591 -148 1361 379 190 130 541 397 520
395 -3 -1 -102 -13 -221 -29z"/>
</g>
</svg>
